<?xml version="1.0" encoding="UTF-8" standalone="no"?>
<!-- Created with Inkscape (http://www.inkscape.org/) -->
<svg
   xmlns:svg="http://www.w3.org/2000/svg"
   xmlns="http://www.w3.org/2000/svg"
   version="1.0"
   width="1188.1962"
   height="621.24414"
   id="svg4328">
  <defs
     id="defs4330" />
  <g
     transform="translate(801.48653,69.6884)"
     id="layer1">
    <path
       d="M 357.08056,72.426841 L 357.08056,338.41339 L 195.29817,338.41339 C 195.29817,338.41339 -5.2497944,335.79685 -5.2497944,134.73415 C -5.2497944,134.73415 -8.9100941,60.906191 59.681207,-7.6851106 C 128.27251,-76.276412 198.95847,-69.466967 198.95847,-69.466967 C 198.95847,-69.466967 250.27059,-73.134416 296.86792,-50.618568 C 296.86792,-50.618568 352.89481,-22.869635 352.89481,24.256724 C 352.89481,24.256724 351.84748,69.284846 308.91045,69.284846 C 265.96984,69.284846 264.40063,26.351388 264.40063,26.351388 C 264.40063,26.351388 264.92966,-18.680308 308.91045,-18.680308 C 308.91045,-18.680308 315.71274,-18.680308 318.34001,-17.636551 C 318.34001,-17.636551 310.48681,-30.200959 279.58873,-30.200959 C 256.02555,-30.200959 209.42822,-10.301653 209.42822,47.819904 C 209.42822,47.819904 210.99743,120.59338 288.48926,120.59338 C 288.48926,120.59338 335.61562,124.26441 357.08056,72.426841"
       id="path305"
       style="opacity:1;fill:#000000;fill-opacity:1;fill-rule:nonzero;stroke:none;stroke-opacity:1" />
    <path
       d="M 382.77058,386.39763 C 382.77058,375.85282 374.22035,367.30617 363.68269,367.30617 C 353.13788,367.30617 344.59837,375.85282 344.59837,386.39763 C 344.59837,396.93529 353.13788,405.47838 363.68269,405.47838 C 374.22035,405.47838 382.77058,396.93529 382.77058,386.39763 M 386.70969,386.39763 C 386.70969,399.11217 376.4008,409.42464 363.68269,409.42464 C 350.95385,409.42464 340.65926,399.11217 340.65926,386.39763 C 340.65926,373.67952 350.95385,363.36348 363.68269,363.36348 C 376.4008,363.36348 386.70969,373.67595 386.70969,386.39763"
       id="path309"
       style="opacity:1;fill:#000000;fill-opacity:1;fill-rule:nonzero;stroke:none;stroke-opacity:1" />
    <path
       d="M -683.00577,551.45785 L -757.79885,551.45785 C -757.79885,552.40152 -801.48653,547.64742 -801.48653,486.54115 C -801.48653,425.42772 -757.90966,427.33294 -757.90966,427.33294 L -683.43114,426.93617 C -683.43114,426.93617 -674.51273,427.45447 -674.51273,439.44338 C -674.51273,453.17666 -683.46688,453.15521 -683.46688,453.15521 L -752.02959,453.15521 C -752.02959,453.15521 -772.65452,451.98277 -772.40073,483.27047 C -772.2363,502.55138 -772.40073,493.11825 -772.40073,493.11825 C -772.40073,493.11825 -769.94147,523.55879 -750.31382,524.88136 L -683.00577,524.88136 C -683.00577,524.88136 -674.51273,525.16732 -674.51273,538.41803 C -674.51273,551.45785 -683.00577,551.45785 -683.00577,551.45785"
       id="path313"
       style="opacity:1;fill:#000000;fill-opacity:1;fill-rule:nonzero;stroke:none;stroke-opacity:1" />
    <path
       d="M -634.56399,452.87282 L -539.01372,452.87282 C -532.05415,453.03368 -533.70915,459.14252 -533.70915,459.14252 L -533.70915,516.66713 C -533.70915,525.29958 -544.43983,525.13872 -544.43983,525.13872 L -615.28308,525.13872 C -630.94659,525.13872 -631.15033,510.69055 -631.15033,510.69055 C -631.15033,494.90193 -615.28308,496.22807 -615.28308,496.22807 L -549.69079,496.22807 C -549.69079,496.22807 -541.62669,496.22092 -541.62669,483.51354 C -541.62669,470.0698 -549.69079,469.81601 -549.69079,469.81601 C -549.69079,469.81601 -601.97517,469.69805 -629.44529,469.85533 C -666.32353,470.05907 -666.34855,510.16867 -666.34855,510.16867 C -666.34855,550.8895 -629.78129,551.55079 -629.78129,551.55079 C -629.78129,551.55079 -533.23731,551.44355 -516.65515,551.44355 C -500.7593,551.44355 -501.73872,535.79792 -501.73872,535.79792 L -501.73872,449.11601 C -501.73872,425.90313 -521.86679,427.33294 -521.86679,427.33294 L -634.81778,427.2829 C -634.81778,427.2829 -644.64769,427.56171 -644.73705,440.11897 C -644.82641,453.21598 -634.56399,452.87282 -634.56399,452.87282"
       id="path317"
       style="opacity:1;fill:#000000;fill-opacity:1;fill-rule:nonzero;stroke:none;stroke-opacity:1" />
    <path
       d="M -479.05129,437.59179 C -479.05129,437.59179 -478.10405,426.8611 -463.41995,426.8611 C -448.72871,426.8611 -447.78862,437.1128 -447.78862,437.1128 L -447.78862,538.6611 C -447.78862,538.6611 -447.84938,550.97172 -462.97314,550.97172 C -478.75103,550.97172 -479.05129,538.6611 -479.05129,538.6611 L -479.05129,437.59179 z"
       id="path321"
       style="opacity:1;fill:#000000;fill-opacity:1;fill-rule:nonzero;stroke:none;stroke-opacity:1" />
    <path
       d="M -440.46444,433.57404 C -440.49661,432.74117 -439.89609,432.541 -439.89609,432.541 C -439.89609,432.541 -426.48095,426.85038 -404.21532,426.85038 C -381.94969,426.85038 -355.41966,433.96008 -354.9514,468.0645 C -354.9514,468.0645 -355.79141,485.85127 -360.6742,492.2139 C -360.6742,492.2139 -360.97088,492.97884 -361.49991,492.90378 C -363.64104,492.5928 -379.90864,487.49912 -386.25698,484.40716 C -387.0112,484.04256 -386.68592,483.47422 -386.68949,483.21685 C -386.68949,483.21685 -380.0552,467.58551 -389.06297,456.22214 C -397.68826,445.31273 -428.36472,447.82561 -434.7059,451.44659 C -434.7059,451.44659 -435.43868,451.76473 -435.82115,450.8854 C -436.60754,448.92656 -440.3858,436.06547 -440.46444,433.57404"
       id="path325"
       style="opacity:1;fill:#000000;fill-opacity:1;fill-rule:nonzero;stroke:none;stroke-opacity:1" />
    <path
       d="M -334.75541,409.78566 C -334.75541,409.78566 -334.60171,399.21941 -318.59862,399.23728 C -303.2032,399.25873 -302.80643,409.78566 -302.80643,409.78566 L -302.80643,540.30895 C -302.80643,540.30895 -303.04235,551.44355 -318.56645,551.44355 C -334.54809,551.44355 -334.75541,540.55202 -334.75541,540.55202 L -334.75541,409.78566 z"
       id="path329"
       style="opacity:1;fill:#000000;fill-opacity:1;fill-rule:nonzero;stroke:none;stroke-opacity:1" />
    <path
       d="M -297.66986,435.70087 C -297.66986,435.70087 -297.85216,435.28265 -295.66813,433.94579 C -295.66813,433.94579 -288.80864,428.77704 -258.71126,427.55098 C -228.13846,427.58315 -198.57367,437.82056 -198.57367,485.43305 C -198.57367,485.43305 -200.82919,520.40249 -212.1032,546.96469 C -212.1032,546.96469 -212.85385,550.72865 -217.36488,550.72865 L -242.92264,550.72865 C -242.92264,550.72865 -249.18518,551.96901 -246.68302,546.45711 C -244.17729,540.95236 -230.14376,507.98107 -230.14376,489.44365 C -230.14376,471.57109 -235.1588,451.10344 -270.73591,451.10344 C -270.73591,451.10344 -282.79274,451.07484 -291.2822,455.36426 C -291.2822,455.36426 -295.03902,457.36956 -295.79681,454.11675 C -296.54389,450.86037 -298.4205,440.20833 -297.66986,435.70087"
       id="path333"
       style="opacity:1;fill:#000000;fill-opacity:1;fill-rule:nonzero;stroke:none;stroke-opacity:1" />
    <path
       d="M 162.35905,411.32628 C 162.35905,411.32628 162.42697,399.33022 176.26033,399.23728 C 189.8256,399.14434 190.29028,411.32628 190.29028,411.32628 L 190.29028,427.2829 L 226.38213,427.2829 C 226.38213,427.2829 234.61065,427.45447 234.61065,440.14041 C 234.61065,452.62976 226.62877,452.87282 226.62877,452.87282 L 190.29028,452.87282 L 190.29028,538.85055 C 190.29028,538.85055 189.8256,551.48287 176.26033,551.49717 C 162.42697,551.51147 162.23752,538.85055 162.23752,538.85055 L 162.23752,452.99436 L 146.67409,452.99436 C 146.67409,452.99436 138.81017,452.85138 138.81017,440.14041 C 138.81017,427.45447 146.44532,426.98979 146.44532,426.98979 L 162.35905,427.2829 L 162.35905,411.32628 z"
       id="path337"
       style="opacity:1;fill:#000000;fill-opacity:1;fill-rule:nonzero;stroke:none;stroke-opacity:1" />
    <path
       d="M 277.62275,411.32628 C 277.62275,411.32628 277.68351,399.33022 291.53832,399.23728 C 305.075,399.14434 305.56113,411.32628 305.56113,411.32628 L 305.56113,427.12562 L 345.16672,427.12562 C 345.16672,427.12562 356.00106,426.91115 356.00106,439.98314 C 356.00106,452.62976 345.42408,452.90142 345.42408,452.90142 L 305.56113,452.90142 L 305.56113,538.85055 C 305.56113,538.85055 305.075,551.48287 291.53832,551.49717 C 277.68351,551.51147 277.50121,538.85055 277.50121,538.85055 L 277.50121,453.02295 L 261.93064,453.02295 C 261.93064,453.02295 254.06672,452.85138 254.06672,439.8759 C 254.06672,427.34724 261.70545,426.98979 261.70545,426.98979 L 277.62275,427.2829 L 277.62275,411.32628 z"
       id="path341"
       style="opacity:1;fill:#000000;fill-opacity:1;fill-rule:nonzero;stroke:none;stroke-opacity:1" />
    <path
       d="M -0.26335082,437.59179 C -0.26335082,437.59179 0.68389473,426.8611 15.367988,426.8611 C 30.055656,426.8611 30.999327,437.1128 30.999327,437.1128 L 30.999327,538.6611 C 30.999327,538.6611 30.931411,550.97172 15.814802,550.97172 C 0.033333635,550.97172 -0.26335082,538.6611 -0.26335082,538.6611 L -0.26335082,437.59179 z"
       id="path345"
       style="opacity:1;fill:#000000;fill-opacity:1;fill-rule:nonzero;stroke:none;stroke-opacity:1" />
    <path
       d="M 38.323501,433.57404 C 38.294905,432.74117 38.888274,432.541 38.888274,432.541 C 38.888274,432.541 52.310564,426.85038 74.569047,426.85038 C 96.841829,426.85038 123.36828,433.96008 123.84011,468.0645 C 123.84011,468.0645 123.00368,485.85127 118.11375,492.2139 C 118.11375,492.2139 117.82421,492.97884 117.28803,492.90378 C 115.1469,492.5928 98.890024,487.49912 92.530968,484.40716 C 91.78032,484.04256 92.105601,483.47422 92.105601,483.21685 C 92.105601,483.21685 98.732745,467.58551 89.7357,456.22214 C 81.103254,445.31273 50.419648,447.82561 44.078464,451.44659 C 44.078464,451.44659 43.349264,451.76473 42.970366,450.8854 C 42.187548,448.92656 38.40214,436.06547 38.323501,433.57404"
       id="path349"
       style="opacity:1;fill:#000000;fill-opacity:1;fill-rule:nonzero;stroke:none;stroke-opacity:1" />
    <path
       d="M -156.03699,452.87282 L -60.483146,452.87282 C -53.519998,453.03368 -55.174996,459.14252 -55.174996,459.14252 L -55.174996,516.66713 C -55.174996,525.29958 -65.902105,525.13872 -65.902105,525.13872 L -136.75607,525.13872 C -152.41601,525.13872 -152.61618,510.69055 -152.61618,510.69055 C -152.61618,494.90193 -136.75607,496.22807 -136.75607,496.22807 L -71.163786,496.22807 C -71.163786,496.22807 -63.08539,496.22092 -63.08539,483.51354 C -63.08539,470.0698 -71.163786,469.81601 -71.163786,469.81601 C -71.163786,469.81601 -123.43387,469.69805 -150.91471,469.85533 C -187.78937,470.05907 -187.81082,510.16867 -187.81082,510.16867 C -187.81082,550.38907 -151.2114,551.47572 -151.2114,551.47572 C -151.2114,551.47572 -54.703161,551.44355 -38.124577,551.44355 C -22.218,551.44355 -23.197417,535.79792 -23.197417,535.79792 L -23.197417,449.11601 C -23.197417,425.90313 -43.325491,427.33294 -43.325491,427.33294 L -156.28005,427.2829 C -156.28005,427.2829 -166.11354,427.56171 -166.19575,440.11897 C -166.28869,453.21598 -156.03699,452.87282 -156.03699,452.87282"
       id="path353"
       style="opacity:1;fill:#000000;fill-opacity:1;fill-rule:nonzero;stroke:none;stroke-opacity:1" />
    <path
       d="M 357.05554,375.99223 L 365.20185,375.99223 C 367.11422,375.99223 368.51185,376.38185 369.39476,377.17182 C 370.27409,377.95821 370.7352,378.9555 370.7352,380.17083 C 370.7352,381.0037 370.49213,381.77579 370.03817,382.47997 C 369.58063,383.1913 368.90862,383.70245 368.04002,384.02416 C 367.16069,384.35301 365.94535,384.51029 364.37614,384.51029 L 357.05554,384.51029 L 357.05554,375.99223 z M 357.05554,398.89413 L 357.05554,387.45926 L 361.00538,387.45926 C 361.89186,387.45926 362.52097,387.49858 362.90344,387.58437 C 363.43962,387.71305 363.95792,387.93825 364.45836,388.27068 C 364.97309,388.59596 365.54501,389.16788 366.18842,389.99002 C 366.84255,390.80858 367.65397,391.98817 368.64768,393.53951 L 372.05062,398.89413 L 376.34718,398.89413 L 371.86117,391.88808 C 370.97112,390.51547 370.03817,389.3752 369.03016,388.4637 C 368.56547,388.04191 367.87559,387.61654 366.98554,387.18403 C 369.4448,386.84087 371.2821,386.04376 372.46169,384.79268 C 373.64485,383.53802 374.2275,381.99741 374.2275,380.17083 C 374.2275,378.75533 373.87362,377.46493 373.15872,376.29249 C 372.45454,375.12005 371.48942,374.30506 370.30268,373.84037 C 369.10522,373.38284 367.36443,373.15049 365.06602,373.15049 L 353.64903,373.15049 L 353.64903,398.89413 L 357.05554,398.89413 z"
       id="path357"
       style="opacity:1;fill:#000000;fill-opacity:1;fill-rule:nonzero;stroke:none;stroke-opacity:1" />
  </g>
</svg>
